<?xml version="1.0" encoding="UTF-8" standalone="no"?>
<svg width="240px" height="50px" viewBox="0 0 240 50" version="1.1" xmlns="http://www.w3.org/2000/svg" xmlns:xlink="http://www.w3.org/1999/xlink">
    <!-- Generator: Sketch 3.7.2 (28276) - http://www.bohemiancoding.com/sketch -->
    <title>PayMaya Logo</title>
    <desc>Created with Sketch.</desc>
    <defs></defs>
    <g id="WebUI" stroke="none" stroke-width="1" fill="none" fill-rule="evenodd">
        <g id="00_ac_newPassword" transform="translate(-392.000000, -30.000000)">
            <g id="PayMaya-Logo-Single-Screen" transform="translate(392.000000, 30.000000)">
                <path d="M51.8537907,45.5672414 C51.135952,42.9592292 50.2963636,40.3882353 49.4049057,37.8333671 C49.2368439,37.3520284 48.8420583,37.1111562 48.4480961,37.0787018 C47.2209262,36.9774848 45.9791424,36.8760649 44.7566038,36.7470588 C40.2825386,36.2744422 35.8965695,35.4149087 31.6945111,33.825355 C26.2178388,31.7535497 21.5945455,28.5598377 18.5805489,23.4587221 C15.7369811,18.6460446 14.6980446,13.5144016 16.8467238,8.22079108 C17.0838422,7.63600406 17.6114923,6.77393509 17.4172899,6.50851927 C17.2512864,6.22048682 16.9536535,6.32373225 16.7224014,6.34087221 C14.6594511,6.49401623 12.6567067,6.90030426 10.7306346,7.67008114 C4.16665523,10.2933063 -0.068542024,16.4098377 0.0346826758,23.2093306 C0.0907718696,26.8935091 1.35499142,30.2223124 3.30689537,33.3144016 C6.0045283,37.5877282 9.79502573,40.6870183 14.2382161,43.0637931 C19.3826758,45.8156187 24.9201715,47.4191684 30.6437393,48.4622718 C37.1760206,49.6527383 48.9348885,49.8942191 49.7598628,49.9197769 C50.6089194,49.946146 50.9940309,49.9299189 51.645283,49.918357 C52.5112178,49.83357 52.764494,49.234787 52.6258662,48.4763692 C52.4871355,47.7180527 52.1855918,46.7724138 51.8537907,45.5672414" id="Fill-1" fill="#177FFF"></path>
                <path d="M58.4048027,32.4782961 C58.3485077,32.2271805 58.0979074,31.1014199 57.8427787,30.1904665 C56.1044254,23.9802231 53.8720755,17.9689655 50.4427101,12.4443205 C48.2392796,8.89462475 45.6066895,5.70740365 42.1284391,3.29411765 C38.3969125,0.705172414 34.2986964,-0.651318458 29.7192453,0.39969574 C24.2354717,1.65841785 20.7015437,5.07809331 19.164494,10.3901623 C18.1656947,13.8423935 18.6889194,17.2122718 20.2272041,20.4469574 C22.3954374,25.0068966 26.0043911,28.0954361 30.528988,30.2337728 C35.7448714,32.6985801 41.3279588,33.6610548 47.0408233,34.0384381 C50.0185935,34.2351927 54.389434,34.2476673 57.3686449,34.0826572 C58.6749571,33.9376268 58.4610978,32.7293103 58.4048027,32.4782961" id="Fill-2" fill="#8DC640"></path>
                <path d="M156.247307,29.4612576 L163.579863,18.4661258 C163.614648,18.425355 163.670326,18.3873225 163.767993,18.4168357 C163.874614,18.4488844 163.874614,18.5820487 163.874614,18.5820487 C163.874614,18.5843813 163.87482,18.5875254 163.87482,18.5903651 L163.87482,35.2750507 C163.87482,35.4250507 164.017873,35.6364097 164.257667,35.6364097 L169.444734,35.6364097 C169.659005,35.6364097 169.819142,35.4462475 169.819142,35.2604462 L169.819142,9.0346856 C169.819142,8.90375254 169.714683,8.65872211 169.437633,8.65872211 L163.546106,8.65872211 C163.362813,8.65872211 163.272762,8.73793103 163.12199,8.99918864 L156.291355,19.8436105 L156.291149,19.8438134 C156.273036,19.8725152 156.223019,19.920284 156.144185,19.920284 C156.058971,19.920284 156.003499,19.8323529 156.003499,19.8323529 C156.003499,19.8321501 156.003499,19.8321501 156.003293,19.8321501 L149.078388,8.8362069 C149.038148,8.76653144 148.962607,8.65872211 148.685969,8.65872211 L142.86422,8.65872211 C142.625249,8.65872211 142.48271,8.85527383 142.48271,9.0346856 L142.48271,35.2370183 C142.48271,35.490568 142.673516,35.6364097 142.858045,35.6364097 L148.045626,35.6364097 C148.314545,35.6364097 148.427136,35.4065923 148.427136,35.2604462 L148.427136,18.6866126 C148.427136,18.6502028 148.451835,18.5741379 148.530257,18.541785 C148.636158,18.498073 148.715609,18.5721095 148.73084,18.594929 L155.978593,29.4640974 C156.042916,29.5433063 156.176398,29.5543611 156.247307,29.4612576" id="Fill-3" fill="#00344E"></path>
                <path d="M113.642779,35.6341785 C113.842127,35.6341785 114.024288,35.4693712 114.024288,35.2583164 L114.024288,23.6506085 C114.024288,22.263286 113.841509,21.0107505 113.476878,19.8931034 C113.111527,18.775355 112.538182,17.8312373 111.756123,17.0603448 C110.999485,16.3155172 110.041441,15.7440162 108.881681,15.3455375 C107.721304,14.9473631 106.32,14.748073 104.677564,14.748073 C102.904117,14.748073 101.392281,14.9021298 100.141029,15.2106491 C99.0041166,15.4906694 97.9140309,15.8549696 96.8594511,16.2735294 C96.7152659,16.3307302 96.5886792,16.5208925 96.6541338,16.7394523 L97.9106346,20.5194726 C97.9696055,20.6896552 98.1773928,20.8037525 98.3699485,20.740568 C99.1591081,20.4814402 100.063842,20.2064909 100.786312,20.0472617 C101.659451,19.8545639 102.669571,19.758215 103.817084,19.758215 C105.303087,19.758215 106.423945,20.079716 107.180377,20.7217039 C107.936295,21.3640974 108.235472,22.1286004 108.310189,23.3115619 L108.3106,23.3495943 L108.309983,23.348783 C108.309983,23.348783 108.315849,23.7940162 107.813722,23.7203854 C107.16813,23.5163286 106.660755,23.3957404 105.987581,23.2653144 C105.191938,23.1110548 104.260137,23.0339757 103.191355,23.0339757 C101.939897,23.0339757 100.799177,23.1688641 99.7693997,23.438641 C98.739211,23.7085193 97.8532075,24.1131846 97.1100515,24.6527383 C96.3671012,25.1922921 95.7866552,25.8733266 95.3697427,26.6952333 C94.9524185,27.5178499 94.7440137,28.4940162 94.7440137,29.6243408 L94.7440137,29.7013185 C94.7440137,30.7292089 94.9329674,31.6350913 95.3110806,32.4185598 C95.6887822,33.2025355 96.2038765,33.8637931 96.855952,34.403144 C97.5072041,34.9426978 98.2699142,35.3473631 99.1436707,35.61714 C100.01681,35.8870183 100.948714,36.0219067 101.939897,36.0219067 C103.39976,36.0219067 104.638353,35.7839757 105.655266,35.3090264 C106.538902,34.8959432 107.313859,34.361359 107.980961,33.7054767 L107.980961,33.706288 C108.102196,33.5866126 108.275403,33.6603448 108.275403,33.8108519 L108.275403,35.2602434 L108.279623,35.2644016 C108.300309,35.501927 108.463945,35.6362069 108.653928,35.6362069 L108.654134,35.6364097 L113.642779,35.6364097 M107.121818,30.9733266 C106.274202,31.6415822 105.146758,31.9751521 103.738868,31.9751521 C102.774031,31.9751521 101.991973,31.7573022 101.392281,31.3200811 C100.792281,30.88357 100.493002,30.2669371 100.493002,29.4701826 L100.493002,29.3931034 C100.493002,28.4680527 100.857633,27.7616633 101.587925,27.273428 C102.317599,26.785497 103.321647,26.5410751 104.599245,26.5410751 C105.328816,26.5410751 106.01331,26.6121704 106.652521,26.7530426 C107.220103,26.8788032 107.729125,27.0450304 108.204288,27.2415822 C108.351767,27.3203854 108.39283,27.4546653 108.39283,27.5291075 L108.39283,28.3526369 C108.39283,29.4315416 107.968714,30.3052738 107.121818,30.9733266" id="Fill-4" fill="#00344E"></path>
                <path id="Fill-5" fill="#00344E"></path>
                <path id="Fill-6" fill="#00344E"></path>
                <path id="Fill-7" fill="#00344E"></path>
                <path id="Fill-8" fill="#00344E"></path>
                <path id="Fill-9" fill="#00344E"></path>
                <path id="Fill-10" fill="#00344E"></path>
                <path id="Fill-11" fill="#00344E"></path>
                <path d="M89.5349228,11.2409736 C88.6353345,10.4188641 87.5405146,9.78306288 86.2498456,9.3331643 C84.9593825,8.88397566 83.4928302,8.65872211 81.8501887,8.65872211 L71.0716981,8.65872211 C70.8447684,8.65872211 70.665283,8.80233266 70.665283,9.06004057 L70.665283,35.2604462 C70.665283,35.5112576 70.8913894,35.6364097 71.0467925,35.6364097 L76.3043568,35.6364097 C76.493928,35.6364097 76.6879245,35.5064909 76.6879245,35.2685598 L76.6879245,27.9191684 C76.6879245,27.7874239 76.7849743,27.5432049 77.0790051,27.5432049 L81.2635678,27.5432049 C82.8015437,27.5432049 84.2419554,27.3445233 85.5851115,26.9457404 C86.9274443,26.5478702 88.1006861,25.9504057 89.1047341,25.1537525 C90.1081647,24.3576065 90.8969125,23.3681542 91.4707719,22.1862069 C92.0438079,21.0045639 92.3311492,19.6299189 92.3311492,18.0624746 L92.3311492,17.9853955 C92.3311492,16.5979716 92.0897084,15.33286 91.6076501,14.1892495 C91.1248714,13.0463489 90.4344082,12.0635903 89.5349228,11.2409736 L89.5349228,11.2409736 Z M86.2302916,18.1973631 C86.2302916,19.3479716 85.8128645,20.3134888 84.9788336,21.0931034 C84.1440823,21.8736308 82.9707376,22.263286 81.4590051,22.263286 L77.058319,22.263286 C76.9104288,22.263286 76.6879245,22.1238337 76.6879245,21.9066937 C76.6879245,21.9066937 76.6856604,14.5737323 76.6856604,14.4438134 C76.6856604,14.2653144 76.817084,14.0530426 77.0671698,14.0530426 L81.3417839,14.0543611 C82.8536192,14.0543611 84.0464151,14.4 84.9201715,15.0901623 C85.7933105,15.7807302 86.2302916,16.7907708 86.2302916,18.120284 L86.2302916,18.1973631 L86.2302916,18.1973631 Z" id="Fill-12" fill="#00344E"></path>
                <path d="M137.825763,14.9792089 L132.477324,14.9792089 C132.388919,14.9792089 132.176295,15.013286 132.107753,15.2559838 L127.786003,28.541785 C127.785077,28.5441176 127.783842,28.5453347 127.783019,28.548073 C127.763774,28.6083164 127.704185,28.68357 127.632864,28.68286 C127.578216,28.6822515 127.517702,28.6727181 127.463465,28.5783976 L122.936089,15.230426 C122.881647,15.0751521 122.735506,14.9792089 122.574545,14.9792089 L117.11331,14.9792089 C116.89163,14.9792089 116.645557,15.1876268 116.757736,15.4922921 L124.704597,35.5557809 C124.723533,35.630426 124.727753,35.7043611 124.723739,35.753854 C124.720034,35.7988844 124.683911,35.869574 124.660137,35.9123732 C124.430017,36.3191684 124.18518,36.6067951 123.926346,36.773428 C123.626141,36.9661258 123.215712,37.0623732 122.69434,37.0623732 C122.303362,37.0623732 121.879245,36.9853955 121.423328,36.8312373 C121.137736,36.7345842 120.74048,36.546856 120.470943,36.4413793 C120.175266,36.3257606 120.012041,36.5641988 119.978491,36.6227181 L118.318971,40.1502028 C118.218319,40.3445233 118.274511,40.5615619 118.46789,40.665213 C119.130463,41.0216024 119.822161,41.3107505 120.543499,41.5330629 C121.37753,41.7895538 122.342367,41.9184584 123.437496,41.9184584 C124.323499,41.9184584 125.105557,41.8155172 125.783979,41.6100406 C126.461578,41.4040568 127.067856,41.0704868 127.602504,40.6081136 C128.136638,40.1456389 128.625489,39.5481744 129.069057,38.8161258 C129.51211,38.0837728 129.929434,37.1907708 130.320515,36.1375254 L138.191835,15.4649087 C138.280446,15.1495943 138.010292,14.9792089 137.825763,14.9792089" id="Fill-13" fill="#00344E"></path>
                <path id="Fill-14" fill="#00344E"></path>
                <path d="M194.048233,35.6341785 C194.247684,35.6341785 194.429743,35.4693712 194.429743,35.2583164 L194.429743,23.6506085 C194.429743,22.263286 194.247067,21.0107505 193.88223,19.8931034 C193.516775,18.775355 192.943739,17.8312373 192.161372,17.0603448 C191.405043,16.3155172 190.446792,15.7440162 189.28693,15.3455375 C188.126552,14.9473631 186.725557,14.748073 185.082916,14.748073 C183.309571,14.748073 181.797839,14.9021298 180.546381,15.2106491 C179.409468,15.4906694 178.319383,15.8549696 177.264906,16.2735294 C177.120617,16.3307302 176.994134,16.5208925 177.059691,16.7394523 L178.316192,20.5194726 C178.374854,20.6896552 178.58295,20.8037525 178.7753,20.740568 C179.56446,20.4814402 180.4694,20.2064909 181.191561,20.0472617 C182.064803,19.8545639 183.075026,19.758215 184.222539,19.758215 C185.708645,19.758215 186.829297,20.079716 187.585832,20.7217039 C188.341647,21.3640974 188.64072,22.1286004 188.715746,23.3115619 L188.715952,23.3495943 L188.71554,23.348783 C188.71554,23.348783 188.721098,23.7940162 188.218971,23.7203854 C187.573585,23.5163286 187.066003,23.3957404 186.393036,23.2653144 C185.597496,23.1110548 184.665592,23.0339757 183.59681,23.0339757 C182.345352,23.0339757 181.204425,23.1688641 180.174854,23.438641 C179.144563,23.7085193 178.258662,24.1131846 177.515506,24.6527383 C176.772453,25.1922921 176.191904,25.8733266 175.775197,26.6952333 C175.357976,27.5178499 175.149468,28.4940162 175.149468,29.6243408 L175.149468,29.7013185 C175.149468,30.7292089 175.338216,31.6350913 175.716535,32.4185598 C176.094237,33.2025355 176.609434,33.8637931 177.261304,34.403144 C177.912762,34.9426978 178.675369,35.3473631 179.549125,35.61714 C180.422367,35.8870183 181.354168,36.0219067 182.345352,36.0219067 C183.805111,36.0219067 185.043705,35.7839757 186.060617,35.3090264 C186.944254,34.8959432 187.719314,34.361359 188.386415,33.7054767 L188.386209,33.706288 C188.50765,33.5866126 188.680961,33.6603448 188.680961,33.8108519 L188.680961,35.2602434 L188.684974,35.2644016 C188.70566,35.501927 188.869297,35.6362069 189.059383,35.6362069 L189.059588,35.6364097 L194.048233,35.6364097 M187.52717,30.9733266 C186.679657,31.6415822 185.552213,31.9751521 184.144425,31.9751521 C183.179383,31.9751521 182.397221,31.7573022 181.797839,31.3200811 C181.197839,30.88357 180.898353,30.2669371 180.898353,29.4701826 L180.898353,29.3931034 C180.898353,28.4680527 181.263087,27.7616633 181.993379,27.273428 C182.723053,26.785497 183.726895,26.5410751 185.0047,26.5410751 C185.734374,26.5410751 186.418559,26.6121704 187.05777,26.7530426 C187.625455,26.8788032 188.134374,27.0450304 188.609743,27.2415822 C188.757118,27.3203854 188.798079,27.4546653 188.798079,27.5291075 L188.798079,28.3526369 C188.798079,29.4315416 188.373962,30.3052738 187.52717,30.9733266" id="Fill-15" fill="#00344E"></path>
                <path d="M218.168748,14.9792089 L212.820309,14.9792089 C212.731698,14.9792089 212.519074,15.013286 212.450532,15.2559838 L208.128988,28.541785 C208.128062,28.5441176 208.126827,28.5453347 208.125798,28.548073 C208.106552,28.6083164 208.046964,28.68357 207.975643,28.68286 C207.921201,28.6822515 207.86048,28.6727181 207.806244,28.5783976 L203.278971,15.230426 C203.224425,15.0751521 203.078491,14.9792089 202.91753,14.9792089 L197.456089,14.9792089 C197.234408,14.9792089 196.988336,15.1876268 197.100515,15.4922921 L205.047581,35.5557809 C205.066312,35.630426 205.070532,35.7043611 205.066724,35.753854 C205.063019,35.7988844 205.02669,35.869574 205.003122,35.9123732 C204.773002,36.3191684 204.528165,36.6067951 204.269228,36.773428 C203.969228,36.9661258 203.558491,37.0623732 203.037324,37.0623732 C202.646141,37.0623732 202.22223,36.9853955 201.766312,36.8312373 C201.480515,36.7345842 201.083465,36.546856 200.813928,36.4413793 C200.518045,36.3257606 200.355026,36.5641988 200.321475,36.6227181 L198.66175,40.1502028 C198.561098,40.3445233 198.61729,40.5615619 198.810669,40.665213 C199.473242,41.0216024 200.16494,41.3107505 200.886278,41.5330629 C201.720515,41.7895538 202.685352,41.9184584 203.78048,41.9184584 C204.666484,41.9184584 205.448645,41.8155172 206.126758,41.6100406 C206.804563,41.4040568 207.410635,41.0704868 207.945283,40.6081136 C208.479417,40.1456389 208.968268,39.5481744 209.411835,38.8161258 C209.854889,38.0837728 210.272316,37.1907708 210.663293,36.1375254 L218.53482,15.4649087 C218.623225,15.1495943 218.35307,14.9792089 218.168748,14.9792089" id="Fill-16" fill="#00344E"></path>
                <path d="M239.612419,35.6341785 C239.81187,35.6341785 239.993928,35.4693712 239.993928,35.2583164 L239.993928,23.6506085 C239.993928,22.263286 239.811252,21.0107505 239.446415,19.8931034 C239.080961,18.775355 238.507925,17.8312373 237.725557,17.0603448 C236.969228,16.3155172 236.010978,15.7440162 234.851218,15.3455375 C233.690738,14.9473631 232.289743,14.748073 230.647101,14.748073 C228.873859,14.748073 227.362024,14.9021298 226.110566,15.2106491 C224.973654,15.4906694 223.883568,15.8549696 222.829091,16.2735294 C222.684803,16.3307302 222.558319,16.5208925 222.623877,16.7394523 L223.880377,20.5194726 C223.939039,20.6896552 224.147136,20.8037525 224.339485,20.740568 C225.128645,20.4814402 226.033585,20.2064909 226.755849,20.0472617 C227.628988,19.8545639 228.639211,19.758215 229.786827,19.758215 C231.27283,19.758215 232.393482,20.079716 233.150017,20.7217039 C233.905832,21.3640974 234.204906,22.1286004 234.279931,23.3115619 L234.280137,23.3495943 L234.279726,23.348783 C234.279726,23.348783 234.285386,23.7940162 233.783259,23.7203854 C233.13777,23.5163286 232.630292,23.3957404 231.957324,23.2653144 C231.161681,23.1110548 230.229777,23.0339757 229.161098,23.0339757 C227.909537,23.0339757 226.768714,23.1688641 225.739142,23.438641 C224.708748,23.7085193 223.822744,24.1131846 223.079794,24.6527383 C222.336638,25.1922921 221.756089,25.8733266 221.339485,26.6952333 C220.921955,27.5178499 220.713756,28.4940162 220.713756,29.6243408 L220.713756,29.7013185 C220.713756,30.7292089 220.902504,31.6350913 221.28072,32.4185598 C221.658422,33.2025355 222.173413,33.8637931 222.825489,34.403144 C223.476947,34.9426978 224.239554,35.3473631 225.113413,35.61714 C225.986552,35.8870183 226.918456,36.0219067 227.909537,36.0219067 C229.369297,36.0219067 230.60789,35.7839757 231.624803,35.3090264 C232.508439,34.8959432 233.283499,34.361359 233.950703,33.7054767 L233.950497,33.706288 C234.071835,33.5866126 234.245146,33.6603448 234.245146,33.8108519 L234.245146,35.2602434 L234.24916,35.2644016 C234.269846,35.501927 234.433482,35.6362069 234.623671,35.6362069 L234.623877,35.6364097 L239.612419,35.6364097 M233.091355,30.9733266 C232.243945,31.6415822 231.116501,31.9751521 229.708611,31.9751521 C228.743568,31.9751521 227.961407,31.7573022 227.362024,31.3200811 C226.762024,30.88357 226.462539,30.2669371 226.462539,29.4701826 L226.462539,29.3931034 C226.462539,28.4680527 226.827376,27.7616633 227.557667,27.273428 C228.287238,26.785497 229.291081,26.5410751 230.568885,26.5410751 C231.298559,26.5410751 231.982847,26.6121704 232.622058,26.7530426 C233.18964,26.8788032 233.698559,27.0450304 234.174031,27.2415822 C234.321304,27.3203854 234.362367,27.4546653 234.362367,27.5291075 L234.362367,28.3526369 C234.362367,29.4315416 233.93825,30.3052738 233.091355,30.9733266" id="Fill-17" fill="#00344E"></path>
            </g>
        </g>
    </g>
</svg>